<svg width="256" height="256" fill="none" xmlns="http://www.w3.org/2000/svg"><path opacity=".998" fill-rule="evenodd" clip-rule="evenodd" d="M61.75 233.75c18.098-11.203 24.014-27.037 17.75-47.5-7.92-16.42-21.003-24.003-39.25-22.75-10.792 1.809-19.459 7.059-26 15.75C3.558 155.616.475 130.949 5 105.25 15.672 55.99 44.922 23.407 92.75 7.5c42.736-11.187 81.402-3.187 116 24 35.536 31.764 49.786 71.348 42.75 118.75-10.93 50.097-40.847 82.847-89.75 98.25-30.883 8.028-60.717 5.195-89.5-8.5a81.402 81.402 0 0 1-10.5-6.25z" fill="#C2B9B4"/><path fill-rule="evenodd" clip-rule="evenodd" d="M211.25 103.75c-1.007 11.1-6.84 15.183-17.5 12.25-5.541-3.448-7.457-8.365-5.75-14.75 3.056-6.07 7.973-8.487 14.75-7.25 4.529 1.83 7.363 5.08 8.5 9.75zM193.25 158.75c1.259 10.236-2.741 17.486-12 21.75-12.508 2.375-20.425-2.542-23.75-14.75-.709-10.33 3.874-17.08 13.75-20.25 10.861-1.324 18.194 3.093 22 13.25zM125.75 72.25c.373 16.868-7.46 27.785-23.5 32.75-17.392 1.684-28.808-5.733-34.25-22.25C65.81 69.216 70.392 58.633 81.75 51c11.277-5.595 22.11-4.928 32.5 2 6.097 5.117 9.93 11.534 11.5 19.25z" fill="#868082"/><path opacity=".996" fill-rule="evenodd" clip-rule="evenodd" d="M61.75 233.75c-21.338-13.34-37.172-31.507-47.5-54.5 6.541-8.691 15.208-13.941 26-15.75 18.247-1.254 31.33 6.33 39.25 22.75 6.264 20.463.348 36.296-17.75 47.5z" fill="#868082"/><path fill-rule="evenodd" clip-rule="evenodd" d="M54.25 116.75c.406 9.631-4.094 13.381-13.5 11.25-5.201-3.605-6.285-8.188-3.25-13.75 6.656-5.943 12.239-5.109 16.75 2.5z" fill="#868082"/></svg>