<svg xmlns="http://www.w3.org/2000/svg" width="512" height="512" style="shape-rendering:geometricPrecision;text-rendering:geometricPrecision;image-rendering:optimizeQuality;fill-rule:evenodd;clip-rule:evenodd"><path style="opacity:1" fill="#eceaec" d="M511.5 299.5v28c-3.51 23.022-13.843 42.355-31 58 .065-.438-.101-.772-.5-1-1.802 1.289-2.969 2.956-3.5 5-14.689 12.336-31.689 19.836-51 22.5-113.333.667-226.667.667-340 0-37.565-6.236-64.065-26.736-79.5-61.5a199.602 199.602 0 0 1-6.5-23v-29c6.804-36.422 27.137-62.256 61-77.5a45.792 45.792 0 0 1 9-2.5c14.023-45.532 44.69-71.699 92-78.5a117.315 117.315 0 0 1 31.5 1.5c40.075-41.56 87.575-53.06 142.5-34.5 45.58 20.957 71.247 56.457 77 106.5 44.817 2.304 75.984 23.971 93.5 65a177.489 177.489 0 0 1 5.5 21z"/><path style="opacity:.212" fill="#352833" d="M480.5 385.5c-1 1.667-2.333 3-4 4 .531-2.044 1.698-3.711 3.5-5 .399.228.565.562.5 1z"/></svg>